<mxfile host="app.diagrams.net" agent="Mozilla/5.0 (Windows NT 10.0; Win64; x64) AppleWebKit/537.36 (KHTML, like Gecko) Chrome/136.0.0.0 Safari/537.36" version="27.0.5">
  <diagram name="Page-1" id="e7e014a7-5840-1c2e-5031-d8a46d1fe8dd">
    <mxGraphModel dx="1303" dy="669" grid="1" gridSize="10" guides="1" tooltips="1" connect="1" arrows="1" fold="1" page="1" pageScale="1" pageWidth="1169" pageHeight="826" background="none" math="0" shadow="0">
      <root>
        <mxCell id="0" />
        <mxCell id="1" parent="0" />
        <mxCell id="2" value="User" style="swimlane;whiteSpace=wrap" parent="1" vertex="1">
          <mxGeometry x="164.5" y="128" width="280" height="570" as="geometry" />
        </mxCell>
        <mxCell id="7" value="Request Transaction History" style="" parent="2" vertex="1">
          <mxGeometry x="50.5" y="132" width="160" height="50" as="geometry" />
        </mxCell>
        <mxCell id="eCYV4ZLi6-8JDtASC3nr-71" style="edgeStyle=orthogonalEdgeStyle;rounded=0;orthogonalLoop=1;jettySize=auto;html=1;entryX=0.5;entryY=0;entryDx=0;entryDy=0;" edge="1" parent="2" source="13" target="7">
          <mxGeometry relative="1" as="geometry" />
        </mxCell>
        <mxCell id="13" value="" style="ellipse;shape=startState;fillColor=#000000;strokeColor=#ff0000;" parent="2" vertex="1">
          <mxGeometry x="115.5" y="32" width="30" height="30" as="geometry" />
        </mxCell>
        <mxCell id="3" value="UI" style="swimlane;whiteSpace=wrap" parent="1" vertex="1">
          <mxGeometry x="444.5" y="128" width="280" height="570" as="geometry" />
        </mxCell>
        <mxCell id="eCYV4ZLi6-8JDtASC3nr-75" style="edgeStyle=orthogonalEdgeStyle;rounded=0;orthogonalLoop=1;jettySize=auto;html=1;entryX=0.5;entryY=0;entryDx=0;entryDy=0;" edge="1" parent="3" source="eCYV4ZLi6-8JDtASC3nr-41" target="eCYV4ZLi6-8JDtASC3nr-56">
          <mxGeometry relative="1" as="geometry" />
        </mxCell>
        <mxCell id="eCYV4ZLi6-8JDtASC3nr-41" value="Display Transaction History" style="" vertex="1" parent="3">
          <mxGeometry x="70" y="192" width="150" height="68" as="geometry" />
        </mxCell>
        <mxCell id="eCYV4ZLi6-8JDtASC3nr-56" value="" style="ellipse;html=1;shape=endState;fillColor=#000000;strokeColor=#ff0000;" vertex="1" parent="3">
          <mxGeometry x="130" y="482" width="30" height="30" as="geometry" />
        </mxCell>
        <mxCell id="4" value="System" style="swimlane;whiteSpace=wrap" parent="1" vertex="1">
          <mxGeometry x="724.5" y="128" width="280" height="570" as="geometry" />
        </mxCell>
        <mxCell id="eCYV4ZLi6-8JDtASC3nr-74" style="edgeStyle=orthogonalEdgeStyle;rounded=0;orthogonalLoop=1;jettySize=auto;html=1;" edge="1" parent="4" source="eCYV4ZLi6-8JDtASC3nr-72">
          <mxGeometry relative="1" as="geometry">
            <mxPoint x="-54.5" y="232" as="targetPoint" />
            <Array as="points">
              <mxPoint x="140" y="232" />
            </Array>
          </mxGeometry>
        </mxCell>
        <mxCell id="eCYV4ZLi6-8JDtASC3nr-72" value="Fetch Transaction History" style="whiteSpace=wrap;html=1;" vertex="1" parent="4">
          <mxGeometry x="80" y="112" width="120" height="60" as="geometry" />
        </mxCell>
        <mxCell id="eCYV4ZLi6-8JDtASC3nr-66" value="&lt;font style=&quot;font-size: 24px;&quot;&gt;Transaction History&lt;/font&gt;" style="text;html=1;align=center;verticalAlign=middle;resizable=0;points=[];autosize=1;strokeColor=none;fillColor=none;" vertex="1" parent="1">
          <mxGeometry x="149.5" y="93" width="230" height="40" as="geometry" />
        </mxCell>
        <mxCell id="eCYV4ZLi6-8JDtASC3nr-73" style="edgeStyle=orthogonalEdgeStyle;rounded=0;orthogonalLoop=1;jettySize=auto;html=1;entryX=0;entryY=0.75;entryDx=0;entryDy=0;" edge="1" parent="1" source="7" target="eCYV4ZLi6-8JDtASC3nr-72">
          <mxGeometry relative="1" as="geometry" />
        </mxCell>
      </root>
    </mxGraphModel>
  </diagram>
</mxfile>
